<svg width="62px" height="23px" viewBox="0 0 62 23" version="1.1" xmlns="http://www.w3.org/2000/svg" xmlns:xlink="http://www.w3.org/1999/xlink">
    <!-- Generator: Sketch 48.2 (47327) - http://www.bohemiancoding.com/sketch -->
    <desc>Created with Sketch.</desc>
    <defs>
        <polygon id="path-1" points="0.159451485 0.0448841584 3.07425743 0.0448841584 3.07425743 2.96039604 0.159451485 2.96039604"></polygon>
        <polygon id="path-3" points="0 22.9776832 61.1435644 22.9776832 61.1435644 0 0 0"></polygon>
    </defs>
    <g id="Symbols---Mastheads---Footers" stroke="none" stroke-width="1" fill="none" fill-rule="evenodd">
        <g id="768-Masthead-Launch" transform="translate(-663.000000, -16.000000)">
            <g id="IBM-Logo" transform="translate(663.000000, 16.000000)">
                <g id="Group-3" transform="translate(58.069307, 20.017287)">
                    <mask id="mask-2" fill="white">
                        <use xlink:href="#path-1"></use>
                    </mask>
                    <g id="Clip-2"></g>
                    <path d="M1.57133267,1.41122079 C1.79905545,1.41122079 2.1406396,1.45676535 2.1406396,1.11518119 C2.1406396,0.864913861 1.93568911,0.841913861 1.73073861,0.841913861 L1.27529307,0.841913861 L1.27529307,1.41122079 L1.57133267,1.41122079 Z M2.34536238,2.32211188 L2.1176396,2.32211188 L1.66219406,1.57062673 L1.29806535,1.57062673 L1.29806535,2.32211188 L1.07034257,2.32211188 L1.07034257,0.705280198 L1.77605545,0.705280198 C2.20895644,0.705280198 2.34536238,0.864913861 2.34536238,1.13818119 C2.34536238,1.45676535 2.1176396,1.57062673 1.8446,1.59362673 L2.34536238,2.32211188 Z M2.82380792,1.5023099 C2.82380792,0.79659703 2.30004554,0.249834653 1.59410495,0.249834653 C0.888164356,0.249834653 0.36440198,0.79659703 0.36440198,1.5023099 C0.36440198,2.2082505 0.888164356,2.77755743 1.59410495,2.77755743 C2.32281782,2.77755743 2.82380792,2.2312505 2.82380792,1.5023099 Z M0.159451485,1.5023099 C0.159451485,0.705280198 0.819847525,0.0448841584 1.61687723,0.0448841584 C2.41390693,0.0448841584 3.07430297,0.705280198 3.07430297,1.5023099 C3.07430297,2.2993396 2.41390693,2.95996337 1.61687723,2.95996337 C0.797075248,2.98250792 0.159451485,2.32211188 0.159451485,1.5023099 Z" id="Fill-1" fill="#000000" mask="url(#mask-2)"></path>
                </g>
                <mask id="mask-4" fill="white">
                    <use xlink:href="#path-3"></use>
                </mask>
                <g id="Clip-5"></g>
                <polygon id="Fill-4" fill="#000000" mask="url(#mask-4)" points="0 1.59383168 11.090099 1.59383168 11.090099 -0.000227722772 0 -0.000227722772"></polygon>
                <polygon id="Fill-6" fill="#000000" mask="url(#mask-4)" points="0 4.62254455 11.090099 4.62254455 11.090099 3.02848515 0 3.02848515"></polygon>
                <polygon id="Fill-7" fill="#000000" mask="url(#mask-4)" points="3.16534653 7.65148515 7.92475248 7.65148515 7.92475248 6.05742574 3.16534653 6.05742574"></polygon>
                <polygon id="Fill-8" fill="#000000" mask="url(#mask-4)" points="3.16534653 10.657198 7.92475248 10.657198 7.92475248 9.08591089 3.16534653 9.08591089"></polygon>
                <polygon id="Fill-9" fill="#000000" mask="url(#mask-4)" points="3.16534653 13.6859109 7.92475248 13.6859109 7.92475248 12.1148515 3.16534653 12.1148515"></polygon>
                <polygon id="Fill-10" fill="#000000" mask="url(#mask-4)" points="3.16534653 16.737396 7.92475248 16.737396 7.92475248 15.1433366 3.16534653 15.1433366"></polygon>
                <polygon id="Fill-11" fill="#000000" mask="url(#mask-4)" points="0 19.7661089 11.090099 19.7661089 11.090099 18.1720495 0 18.1720495"></polygon>
                <polygon id="Fill-12" fill="#000000" mask="url(#mask-4)" points="0 22.7948218 11.090099 22.7948218 11.090099 21.2007624 0 21.2007624"></polygon>
                <path d="M12.6613634,3.02855347 L29.7633436,3.02855347 C29.8999772,3.27904851 30.2415614,4.28102871 30.2871059,4.62261287 L12.6613634,4.62261287 L12.6613634,3.02855347 Z" id="Fill-13" fill="#000000" mask="url(#mask-4)"></path>
                <polygon id="Fill-14" fill="#000000" mask="url(#mask-4)" points="15.849505 7.65148515 20.6089109 7.65148515 20.6089109 6.05742574 15.849505 6.05742574"></polygon>
                <path d="M25.3455673,6.05733465 L30.4237851,6.05733465 C30.4465574,6.39891881 30.2871515,7.33258218 30.1505178,7.65139406 L25.3455673,7.65139406 L25.3455673,6.05733465 Z" id="Fill-15" fill="#000000" mask="url(#mask-4)"></path>
                <path d="M15.8494822,12.1147832 L28.078195,12.1147832 C28.4653238,12.3880505 29.2168089,13.2989416 29.4900762,13.6858426 L15.8494822,13.6858426 L15.8494822,12.1147832 Z" id="Fill-16" fill="#000000" mask="url(#mask-4)"></path>
                <polygon id="Fill-17" fill="#000000" mask="url(#mask-4)" points="15.849505 16.737396 20.6089109 16.737396 20.6089109 15.1433366 15.849505 15.1433366"></polygon>
                <path d="M25.3455673,15.1434505 L30.1732901,15.1434505 C30.2871515,15.3711733 30.4693297,16.418698 30.4465574,16.7375099 L25.3455673,16.7375099 L25.3455673,15.1434505 Z" id="Fill-18" fill="#000000" mask="url(#mask-4)"></path>
                <path d="M12.6613634,18.1721178 L30.2415614,18.1721178 C30.2187891,18.536702 29.877205,19.5384545 29.717799,19.7661772 L12.6613634,19.7661772 L12.6613634,18.1721178 Z" id="Fill-19" fill="#000000" mask="url(#mask-4)"></path>
                <path d="M12.6613634,21.2007851 L28.5564129,21.2007851 C27.1445317,22.3849436 25.8920564,22.7948446 23.7286901,22.7948446 L22.157403,22.7948446 L12.6613634,22.7948446 L12.6613634,21.2007851 Z" id="Fill-20" fill="#000000" mask="url(#mask-4)"></path>
                <polygon id="Fill-21" fill="#000000" mask="url(#mask-4)" points="34.8644475 9.08600198 43.8822693 9.08600198 44.3832594 10.5206554 44.8842495 9.08600198 53.9020713 9.08600198 53.9020713 10.6800614 49.1424376 10.6800614 49.1424376 9.38204158 48.6869921 10.6800614 40.0790713 10.6800614 39.6236257 9.38204158 39.6236257 10.6800614 34.8644475 10.6800614"></polygon>
                <polygon id="Fill-22" fill="#000000" mask="url(#mask-4)" points="34.8643564 13.6859109 39.6235347 13.6859109 39.6235347 12.1148515 34.8643564 12.1148515"></polygon>
                <polygon id="Fill-23" fill="#000000" mask="url(#mask-4)" points="34.8643564 16.737396 39.6235347 16.737396 39.6235347 15.1433366 34.8643564 15.1433366"></polygon>
                <polygon id="Fill-24" fill="#000000" mask="url(#mask-4)" points="31.6990099 19.7433366 39.6237624 19.7433366 39.6237624 18.1720495 31.6990099 18.1720495"></polygon>
                <polygon id="Fill-25" fill="#000000" mask="url(#mask-4)" points="31.6990099 22.7948218 39.6237624 22.7948218 39.6237624 21.2007624 31.6990099 21.2007624"></polygon>
                <polygon id="Fill-26" fill="#000000" mask="url(#mask-4)" points="48.1177307 -0.000113861386 57.0674634 -0.000113861386 57.0674634 1.59394554 47.5484238 1.59394554"></polygon>
                <polygon id="Fill-27" fill="#000000" mask="url(#mask-4)" points="47.0476158 3.02855347 57.0674178 3.02855347 57.0674178 4.62261287 46.4783089 4.62261287"></polygon>
                <polygon id="Fill-28" fill="#000000" mask="url(#mask-4)" points="45.9772733 6.05733465 53.9020257 6.05733465 53.9020257 7.65139406 45.4079663 7.65139406"></polygon>
                <polygon id="Fill-29" fill="#000000" mask="url(#mask-4)" points="49.1425743 13.6859109 53.9019802 13.6859109 53.9019802 12.1148515 49.1425743 12.1148515"></polygon>
                <polygon id="Fill-30" fill="#000000" mask="url(#mask-4)" points="49.1425743 16.737396 53.9019802 16.737396 53.9019802 15.1433366 49.1425743 15.1433366"></polygon>
                <polygon id="Fill-31" fill="#000000" mask="url(#mask-4)" points="49.1425743 19.7433366 57.0675545 19.7433366 57.0675545 18.1720495 49.1425743 18.1720495"></polygon>
                <polygon id="Fill-32" fill="#000000" mask="url(#mask-4)" points="49.1425743 22.7948218 57.0675545 22.7948218 57.0675545 21.2007624 49.1425743 21.2007624"></polygon>
                <polygon id="Fill-33" fill="#000000" mask="url(#mask-4)" points="40.580198 12.1147832 48.1861386 12.1147832 47.639604 13.7088426 41.1267327 13.7088426"></polygon>
                <polygon id="Fill-34" fill="#000000" mask="url(#mask-4)" points="41.6276317 15.1434505 47.1385228 15.1434505 46.5692158 16.7375099 42.1969386 16.7375099"></polygon>
                <polygon id="Fill-35" fill="#000000" mask="url(#mask-4)" points="42.6979743 18.1721178 46.0682713 18.1721178 45.5217366 19.7661772 43.2445089 19.7661772"></polygon>
                <polygon id="Fill-36" fill="#000000" mask="url(#mask-4)" points="43.7683168 21.2007851 45.0207921 21.2007851 44.4742574 22.7948446 44.3148515 22.7948446"></polygon>
                <path d="M15.8494822,10.6800614 L28.078195,10.6800614 C28.4653238,10.4067941 29.2168089,9.49590297 29.4900762,9.10877426 L15.8494822,9.10877426 L15.8494822,10.6800614 Z" id="Fill-37" fill="#000000" mask="url(#mask-4)"></path>
                <polygon id="Fill-38" fill="#000000" mask="url(#mask-4)" points="40.6484693 -0.000113861386 31.6989644 -0.000113861386 31.6989644 1.59394554 41.2177762 1.59394554"></polygon>
                <polygon id="Fill-39" fill="#000000" mask="url(#mask-4)" points="41.7188119 3.02855347 31.6990099 3.02855347 31.6990099 4.62261287 42.2881188 4.62261287"></polygon>
                <polygon id="Fill-40" fill="#000000" mask="url(#mask-4)" points="42.7891545 6.05733465 34.8871743 6.05733465 34.8871743 7.65139406 43.3584614 7.65139406"></polygon>
                <path d="M12.6613634,1.59394554 L28.5564129,1.59394554 C27.1445317,0.409787129 25.8920564,-0.000113861386 23.7286901,-0.000113861386 L22.157403,-0.000113861386 L12.6613634,-0.000113861386 L12.6613634,1.59394554 Z" id="Fill-41" fill="#000000" mask="url(#mask-4)"></path>
            </g>
        </g>
    </g>
</svg>