<?xml version="1.0" standalone="no"?>
<!DOCTYPE svg PUBLIC "-//W3C//DTD SVG 20010904//EN"
 "http://www.w3.org/TR/2001/REC-SVG-20010904/DTD/svg10.dtd">
<svg version="1.0" xmlns="http://www.w3.org/2000/svg"
 width="700.000000pt" height="700.000000pt" viewBox="0 0 700.000000 700.000000"
 preserveAspectRatio="xMidYMid meet">
<metadata>
Created by potrace 1.14, written by Peter Selinger 2001-2017
</metadata>
<g transform="translate(0.000000,700.000000) scale(0.100000,-0.100000)"
fill="#000000" stroke="none">
<path d="M4978 4935 c-2 -1 -79 -5 -173 -9 -93 -3 -192 -8 -220 -11 -27 -2
-79 -7 -115 -10 -36 -4 -78 -8 -95 -10 -16 -2 -52 -7 -80 -10 -27 -4 -59 -8
-70 -9 -11 -2 -45 -6 -75 -10 -30 -4 -107 -17 -170 -28 -63 -11 -128 -22 -145
-25 -25 -4 -185 -35 -250 -49 -61 -12 -123 -25 -143 -29 -13 -2 -32 -7 -42
-10 -10 -3 -27 -8 -37 -10 -10 -2 -40 -9 -68 -15 -27 -6 -57 -13 -65 -15 -148
-32 -670 -177 -885 -245 -55 -18 -120 -38 -145 -45 -39 -11 -338 -112 -560
-189 -104 -36 -227 -85 -215 -85 6 -1 57 8 115 19 58 11 121 23 140 26 19 2
46 7 60 9 14 3 39 7 55 9 51 7 119 18 140 22 21 4 81 13 130 19 17 2 64 9 105
15 96 13 145 20 194 25 21 3 55 7 75 10 43 6 96 12 171 20 30 3 71 7 90 10 19
2 64 7 100 10 36 3 81 8 100 10 81 9 303 28 475 40 44 3 105 7 135 10 221 16
554 31 895 40 182 5 941 5 1070 0 55 -2 174 -6 265 -10 175 -6 288 -12 384
-20 l58 -6 -31 40 c-101 128 -328 304 -483 375 -78 37 -210 83 -261 92 -17 3
-33 7 -36 9 -4 2 -25 6 -47 9 -22 4 -51 9 -64 12 -14 2 -74 7 -135 10 -60 3
-118 7 -127 8 -9 2 -18 3 -20 1z"/>
<path d="M5008 4225 c-2 -2 -84 -6 -183 -10 -99 -4 -200 -8 -225 -10 -25 -2
-90 -6 -145 -9 -55 -4 -118 -9 -140 -11 -22 -2 -71 -7 -110 -10 -38 -3 -83 -8
-100 -10 -16 -2 -64 -6 -105 -10 -41 -4 -82 -8 -90 -10 -8 -2 -44 -7 -80 -10
-36 -4 -76 -8 -90 -10 -14 -2 -77 -11 -140 -20 -127 -18 -124 -18 -265 -40
-55 -9 -116 -18 -135 -21 -19 -3 -53 -9 -75 -14 -22 -5 -56 -11 -75 -15 -19
-3 -46 -8 -60 -10 -14 -3 -36 -7 -50 -10 -166 -31 -402 -83 -590 -130 -80 -20
-154 -38 -165 -40 -38 -8 -380 -104 -465 -130 -47 -15 -128 -40 -180 -56 -52
-16 -178 -57 -280 -92 -209 -72 -192 -56 -177 -172 3 -27 9 -72 12 -100 8 -60
15 -68 57 -71 18 0 74 -4 123 -8 50 -4 122 -9 160 -12 39 -2 97 -7 130 -9 33
-3 89 -7 125 -10 36 -3 85 -7 110 -10 25 -2 77 -7 115 -10 68 -5 121 -10 243
-20 31 -2 77 -7 102 -10 25 -3 72 -7 105 -10 95 -7 188 -16 215 -20 14 -2 57
-7 95 -10 39 -3 81 -8 95 -10 14 -2 57 -7 95 -10 39 -4 81 -8 95 -10 14 -2 50
-7 80 -10 51 -5 183 -21 255 -30 17 -2 57 -7 90 -10 33 -4 68 -9 79 -11 10 -2
44 -6 75 -10 97 -11 250 -31 302 -40 15 -2 44 -6 65 -9 22 -3 57 -7 79 -11 22
-3 53 -7 68 -9 52 -8 103 -15 122 -19 11 -2 45 -7 75 -11 30 -4 64 -9 75 -11
11 -3 36 -6 56 -9 20 -2 106 -16 190 -30 85 -14 170 -28 189 -31 19 -3 73 -12
120 -21 47 -8 96 -17 110 -19 14 -3 36 -7 50 -9 14 -3 39 -8 55 -10 17 -3 77
-14 135 -25 58 -11 119 -22 135 -25 78 -13 681 -136 736 -150 22 -5 31 0 61
37 139 172 246 397 294 620 27 124 37 371 20 488 -23 155 -70 315 -125 428
-17 34 -31 67 -31 72 0 6 -3 10 -7 11 -5 0 -16 2 -26 4 -10 2 -73 7 -140 10
-67 4 -156 9 -197 11 -87 5 -937 13 -942 9z"/>
<path d="M3008 2584 c-2 -1 -98 -5 -214 -8 -198 -6 -380 -15 -449 -21 -16 -1
-64 -4 -105 -5 -64 -2 -70 -3 -40 -11 28 -6 157 -26 285 -44 11 -2 90 -14 175
-29 85 -14 173 -28 195 -31 98 -16 644 -117 775 -145 80 -17 167 -35 194 -40
27 -6 68 -15 90 -21 23 -6 50 -13 61 -15 11 -2 38 -8 60 -13 98 -25 452 -110
475 -115 14 -2 61 -12 105 -20 238 -47 552 -41 759 15 23 6 49 13 59 15 121
23 379 155 516 263 l24 19 -114 26 c-116 26 -300 59 -399 71 -30 4 -66 8 -80
10 -14 2 -50 6 -80 10 -30 4 -66 8 -80 10 -14 2 -56 6 -95 10 -38 3 -81 8 -95
10 -14 2 -65 6 -115 10 -49 3 -110 8 -135 10 -25 3 -90 7 -145 10 -55 2 -140
7 -190 10 -255 14 -405 17 -897 20 -296 1 -539 1 -540 -1z"/>
</g>
</svg>
